<?xml version="1.0" encoding="UTF-8"?>
<svg width="252px" height="58px" viewBox="0 0 252 58" version="1.1" xmlns="http://www.w3.org/2000/svg" xmlns:xlink="http://www.w3.org/1999/xlink">
    <!-- Generator: Sketch 52.1 (67048) - http://www.bohemiancoding.com/sketch -->
    <title>Group</title>
    <desc>Created with Sketch.</desc>
    <g id="Page-1" stroke="none" stroke-width="1" fill="none" fill-rule="evenodd">
        <g id="1" transform="translate(-594.000000, -661.000000)">
            <g id="Group" transform="translate(594.000000, 661.000000)">
                <rect id="Rectangle" fill="#4A4A4A" x="0" y="0" width="252" height="58" rx="5"></rect>
                <path d="M59.808,22.488 L59.808,38 L55.86,38 L55.86,36.04 C54.88,37.356 53.172,38.196 51.24,38.196 C47.628,38.196 45.024,35.844 45.024,31.588 L45.024,22.488 L48.944,22.488 L48.944,31.028 C48.944,33.52 50.316,34.864 52.388,34.864 C54.516,34.864 55.86,33.52 55.86,31.028 L55.86,22.488 L59.808,22.488 Z M67.592,24.728 C68.516,23.412 70.308,22.236 72.716,22.236 C76.692,22.236 79.8,25.344 79.8,30.188 C79.8,35.032 76.692,38.252 72.716,38.252 C70.28,38.252 68.544,37.048 67.592,35.788 L67.592,45.392 L63.672,45.392 L63.672,22.488 L67.592,22.488 L67.592,24.728 Z M75.796,30.188 C75.796,27.248 73.808,25.68 71.68,25.68 C69.58,25.68 67.592,27.304 67.592,30.244 C67.592,33.184 69.58,34.808 71.68,34.808 C73.808,34.808 75.796,33.128 75.796,30.188 Z M82.656,38 L82.656,17.28 L86.576,17.28 L86.576,38 L82.656,38 Z M105.42,30.244 C105.42,35.116 101.836,38.252 97.328,38.252 C92.848,38.252 89.46,35.116 89.46,30.244 C89.46,25.344 92.96,22.236 97.44,22.236 C101.92,22.236 105.42,25.344 105.42,30.244 Z M93.436,30.244 C93.436,33.324 95.228,34.836 97.328,34.836 C99.4,34.836 101.388,33.324 101.388,30.244 C101.388,27.136 99.456,25.652 97.384,25.652 C95.312,25.652 93.436,27.136 93.436,30.244 Z M107.296,30.188 C107.296,25.344 110.432,22.236 114.38,22.236 C116.872,22.236 118.58,23.412 119.504,24.7 L119.504,22.488 L123.452,22.488 L123.452,38 L119.504,38 L119.504,35.732 C118.58,37.076 116.816,38.252 114.352,38.252 C110.432,38.252 107.296,35.032 107.296,30.188 Z M119.504,30.244 C119.504,27.304 117.544,25.68 115.388,25.68 C113.288,25.68 111.3,27.248 111.3,30.188 C111.3,33.128 113.288,34.808 115.388,34.808 C117.544,34.808 119.504,33.184 119.504,30.244 Z M126.28,30.188 C126.28,25.344 129.416,22.236 133.392,22.236 C135.436,22.236 137.396,23.188 138.46,24.644 L138.46,17.28 L142.436,17.28 L142.436,38 L138.46,38 L138.46,35.704 C137.536,37.132 135.8,38.252 133.364,38.252 C129.416,38.252 126.28,35.032 126.28,30.188 Z M138.488,30.244 C138.488,27.304 136.528,25.68 134.372,25.68 C132.272,25.68 130.284,27.248 130.284,30.188 C130.284,33.128 132.272,34.808 134.372,34.808 C136.528,34.808 138.488,33.184 138.488,30.244 Z M153.356,38 L153.356,25.708 L151.592,25.708 L151.592,22.488 L153.356,22.488 L153.356,21.704 C153.356,17.896 155.512,16.132 159.88,16.244 L159.88,19.548 C157.976,19.492 157.332,20.108 157.332,21.844 L157.332,22.488 L160.048,22.488 L160.048,25.708 L157.332,25.708 L157.332,38 L153.356,38 Z M162.596,38 L162.596,22.488 L166.516,22.488 L166.516,38 L162.596,38 Z M164.584,20.64 C163.184,20.64 162.176,19.632 162.176,18.344 C162.176,17.056 163.184,16.048 164.584,16.048 C165.956,16.048 166.992,17.056 166.992,18.344 C166.992,19.632 165.956,20.64 164.584,20.64 Z M170.38,38 L170.38,17.28 L174.3,17.28 L174.3,38 L170.38,38 Z M184.828,25.456 C182.952,25.456 181.468,26.66 181.16,28.788 L188.524,28.788 C188.468,26.744 186.844,25.456 184.828,25.456 Z M192.192,33.128 C191.352,35.984 188.776,38.252 184.94,38.252 C180.432,38.252 177.156,35.116 177.156,30.244 C177.156,25.344 180.348,22.236 184.94,22.236 C189.42,22.236 192.584,25.288 192.584,29.908 C192.584,30.412 192.556,30.916 192.472,31.42 L181.132,31.42 C181.328,33.716 182.896,35.004 184.856,35.004 C186.536,35.004 187.46,34.164 187.964,33.128 L192.192,33.128 Z M207.48,33.576 C207.48,36.236 205.156,38.252 201.376,38.252 C197.484,38.252 194.768,35.984 194.6,33.1 L198.548,33.1 C198.688,34.276 199.78,35.172 201.348,35.172 C202.888,35.172 203.728,34.472 203.728,33.576 C203.728,30.804 194.964,32.568 194.964,26.884 C194.964,24.308 197.26,22.236 201.096,22.236 C204.848,22.236 207.116,24.28 207.34,27.36 L203.588,27.36 C203.476,26.156 202.524,25.344 200.984,25.344 C199.528,25.344 198.772,25.932 198.772,26.828 C198.772,29.656 207.368,27.892 207.48,33.576 Z" id="upload-files" fill="#FFFFFF"></path>
            </g>
        </g>
    </g>
</svg>