<?xml version="1.0" encoding="UTF-8"?>
<svg width="447px" height="151px" viewBox="0 0 447 151" version="1.1" xmlns="http://www.w3.org/2000/svg" xmlns:xlink="http://www.w3.org/1999/xlink">
    <!-- Generator: Sketch 52.1 (67048) - http://www.bohemiancoding.com/sketch -->
    <title>Group 2</title>
    <desc>Created with Sketch.</desc>
    <g id="Page-1" stroke="none" stroke-width="1" fill="none" fill-rule="evenodd">
        <g id="1" transform="translate(-556.000000, -377.000000)" fill="#479CC6">
            <g id="Group-3" transform="translate(436.000000, 377.000000)">
                <g id="Group-2" transform="translate(120.000000, 0.000000)">
                    <g id="1200px-Varian_company_logo_2017" transform="translate(0.500000, 0.513274)">
                        <path d="M121.5,0.571681416 C132.865,-0.501474926 144.48,4.48318584 151.735,13.2890855 C151.77,9.60825959 151.74,5.92743363 151.755,2.24660767 C157.06,2.25162242 162.365,2.24159292 167.67,2.25663717 C167.67,27.9873156 167.675,53.7179941 167.67,79.4486726 C162.365,79.4587021 157.06,79.4486726 151.755,79.4536873 C151.735,75.7929204 151.775,72.1321534 151.73,68.4764012 C147.12,73.9625369 140.92,78.1348083 133.99,80.0253687 C125.22,82.4976401 115.55,81.4495575 107.465,77.2471976 C99.835,73.3356932 93.72,66.6861357 90.175,58.8882006 C85.505,48.6230088 85.075,36.5174041 88.92,25.9162242 C91.585,18.5445428 96.44,11.940118 102.815,7.37669617 C108.26,3.44011799 114.8,1.0280236 121.5,0.571681416 Z M122.745,15.4955752 C112.285,17.2657817 103.99,26.5831858 102.75,37.0489676 C101.46,45.7345133 104.67,55.0820059 111.38,60.8188791 C115.8,64.6551622 121.66,66.8215339 127.52,66.620944 C134.88,66.7463127 142.125,63.060472 146.58,57.2182891 C151.165,51.3460177 153.065,43.4528024 151.7,36.1262537 C150.42,28.4887906 145.555,21.4781711 138.675,17.8876106 C133.835,15.2749263 128.13,14.5929204 122.745,15.4955752 Z" id="Shape" fill-rule="nonzero"></path>
                        <path d="M281.9,12.9380531 C290.895,2.57256637 305.89,-2.0259587 319.095,1.7100295 C326,3.62064897 332.34,7.67256637 336.89,13.2389381 C337.045,9.56814159 336.765,5.89233038 337.05,2.23156342 C342.32,2.26165192 347.59,2.24159292 352.865,2.24660767 C352.88,27.9772861 352.865,53.7129794 352.87,79.4486726 C347.55,79.4436578 342.235,79.4787611 336.92,79.4286136 C336.975,75.8079646 336.995,72.1873156 336.895,68.5666667 C331.305,75.2914454 323.17,79.879941 314.495,80.9932153 C306.18,82.1817109 297.48,80.3162242 290.335,75.9032448 C283.445,71.6858407 278.02,65.1817109 274.915,57.7247788 C268.765,43.0766962 271.14,24.8280236 281.9,12.9380531 Z M308.245,15.4504425 C303.46,16.2979351 298.915,18.5846608 295.465,22.0348083 C290.39,26.9492625 287.605,34.0651917 287.73,41.1159292 C287.755,48.1115044 290.6,55.1271386 295.69,59.9463127 C300.25,64.39941 306.655,66.8967552 313.025,66.620944 C320.98,66.7011799 328.64,62.2530973 332.965,55.6286136 C337.335,49.0743363 338.505,40.5342183 336.205,33.0070796 C334.055,25.7306785 328.52,19.4772861 321.43,16.7492625 C317.265,15.0693215 312.65,14.7935103 308.245,15.4504425 Z" id="Shape" fill-rule="nonzero"></path>
                        <path d="M394.43,2.54749263 C404.95,-1.00294985 416.955,-0.0852507375 426.695,5.31061947 C433.225,8.90117994 438.605,14.5327434 441.88,21.2424779 C444.755,26.919174 445.945,33.2979351 446.04,39.6265487 C446.09,52.8955752 446.05,66.1646018 446.06,79.4336283 C440.75,79.4787611 435.44,79.4436578 430.13,79.4536873 C430.13,66.6710914 430.125,53.8884956 430.135,41.1058997 C430.645,31.8737463 426.25,22.0047198 417.75,17.7772861 C411.19,14.4023599 402.965,14.5026549 396.52,18.0982301 C389.195,22.1150442 384.87,30.4094395 384.735,38.6536873 C384.675,52.2536873 384.73,65.8536873 384.71,79.4486726 C379.415,79.4536873 374.125,79.4587021 368.835,79.4486726 C368.825,65.8436578 368.845,52.2336283 368.825,38.6286136 C368.96,30.6300885 371.355,22.6014749 376.055,16.0973451 C380.555,9.78879056 387.1,5.00973451 394.43,2.54749263 Z" id="Path"></path>
                        <path d="M0.025,2.25162242 C5.82,2.24159292 11.615,2.25663717 17.405,2.24159292 C25.645,21.4230088 33.825,40.6294985 42.015,59.8359882 C42.065,60.2772861 42.675,61.1247788 42.95,60.3224189 C51.2,40.9705015 59.415,21.6085546 67.645,2.25162242 C73.345,2.25162242 79.05,2.24159292 84.755,2.25663717 C73.545,27.9772861 62.45,53.7581121 51.205,79.4687316 C45.29,79.4286136 39.38,79.4787611 33.465,79.4386431 C22.345,53.6979351 11.085,28.0174041 0.025,2.25162242 Z" id="Path"></path>
                        <path d="M192.35,12.3011799 C198.48,5.60147493 207.675,2.61769912 216.54,2.27669617 C220.76,2.21651917 224.98,2.25162242 229.2,2.25663717 C229.195,7.28141593 229.195,12.3061947 229.2,17.3259587 C223.37,17.5867257 217.36,16.6188791 211.705,18.4542773 C207.345,19.8283186 203.66,23.1029499 201.77,27.2752212 C199.33,32.3451327 199.38,38.1171091 199.415,43.6182891 C199.41,55.5634218 199.415,67.5085546 199.415,79.4536873 C194.15,79.4637168 188.89,79.4336283 183.625,79.4687316 C183.57,65.6831858 183.6,51.9026549 183.61,38.1171091 C183.59,28.9050147 185.985,19.2165192 192.35,12.3011799 Z" id="Path"></path>
                        <path d="M241.585,2.24159292 C246.85,2.25162242 252.12,2.24660767 257.385,2.24660767 C257.39,27.9823009 257.4,53.7179941 257.38,79.4587021 C252.11,79.4436578 246.845,79.4637168 241.58,79.4486726 C241.585,53.7129794 241.57,27.9772861 241.585,2.24159292 Z" id="Path"></path>
                    </g>
                    <path d="M309.095,149.952802 L309.095,136.142183 C309.095,132.170501 306.89,130.094395 303.56,130.094395 C300.185,130.094395 297.98,132.170501 297.98,136.142183 L297.98,149.952802 L291.68,149.952802 L291.68,136.142183 C291.68,132.170501 289.475,130.094395 286.145,130.094395 C282.725,130.094395 280.52,132.170501 280.52,136.142183 L280.52,149.952802 L274.22,149.952802 L274.22,124.949263 L280.52,124.949263 L280.52,127.973156 C282.095,125.89705 284.75,124.588201 287.855,124.588201 C291.725,124.588201 294.92,126.258112 296.63,129.372271 C298.25,126.528909 301.535,124.588201 305.18,124.588201 C311.165,124.588201 315.395,128.379351 315.395,135.284661 L315.395,149.952802 L309.095,149.952802 Z M327.68,137.496165 L327.68,149.952802 L321.38,149.952802 L321.38,124.949263 L327.68,124.949263 L327.68,128.830678 C329.255,126.258112 331.865,124.588201 335.33,124.588201 L335.33,131.222714 L333.665,131.222714 C329.93,131.222714 327.68,132.666962 327.68,137.496165 Z M339.56,149.952802 L339.56,124.949263 L345.86,124.949263 L345.86,149.952802 L339.56,149.952802 Z M342.755,121.970501 C340.505,121.970501 338.885,120.345723 338.885,118.269617 C338.885,116.19351 340.505,114.568732 342.755,114.568732 C344.96,114.568732 346.625,116.19351 346.625,118.269617 C346.625,120.345723 344.96,121.970501 342.755,121.970501 Z M363.77,142.189971 L363.77,130.139528 L360.8,130.139528 L360.8,124.949263 L363.77,124.949263 L363.77,118.766077 L370.115,118.766077 L370.115,124.949263 L375.695,124.949263 L375.695,130.139528 L370.115,130.139528 L370.115,142.235103 C370.115,143.905015 370.79,144.627139 372.77,144.627139 L375.695,144.627139 L375.695,149.952802 L371.735,149.952802 C366.965,149.952802 363.77,147.921829 363.77,142.189971 Z M390.95,129.733333 C387.935,129.733333 385.55,131.674041 385.055,135.10413 L396.89,135.10413 C396.8,131.80944 394.19,129.733333 390.95,129.733333 Z M402.785,142.099705 C401.435,146.703245 397.295,150.358997 391.13,150.358997 C383.885,150.358997 378.62,145.30413 378.62,137.451032 C378.62,129.552802 383.75,124.543068 391.13,124.543068 C398.33,124.543068 403.415,129.462537 403.415,136.90944 C403.415,137.721829 403.37,138.534218 403.235,139.346608 L385.01,139.346608 C385.325,143.047493 387.845,145.123599 390.995,145.123599 C393.695,145.123599 395.18,143.769617 395.99,142.099705 L402.785,142.099705 Z M427.355,142.821829 C427.355,147.10944 423.62,150.358997 417.545,150.358997 C411.29,150.358997 406.925,146.703245 406.655,142.054572 L413,142.054572 C413.225,143.950147 414.98,145.394395 417.5,145.394395 C419.975,145.394395 421.325,144.266077 421.325,142.821829 C421.325,138.353687 407.24,141.19705 407.24,132.035103 C407.24,127.882891 410.93,124.543068 417.095,124.543068 C423.125,124.543068 426.77,127.837758 427.13,132.80236 L421.1,132.80236 C420.92,130.861652 419.39,129.552802 416.915,129.552802 C414.575,129.552802 413.36,130.50059 413.36,131.944838 C413.36,136.503245 427.175,133.659882 427.355,142.821829 Z M433.52,142.189971 L433.52,130.139528 L430.55,130.139528 L430.55,124.949263 L433.52,124.949263 L433.52,118.766077 L439.865,118.766077 L439.865,124.949263 L445.445,124.949263 L445.445,130.139528 L439.865,130.139528 L439.865,142.235103 C439.865,143.905015 440.54,144.627139 442.52,144.627139 L445.445,144.627139 L445.445,149.952802 L441.485,149.952802 C436.715,149.952802 433.52,147.921829 433.52,142.189971 Z" id="mri-test"></path>
                </g>
            </g>
        </g>
    </g>
</svg>