<?xml version="1.0" encoding="UTF-8"?>
<svg width="204px" height="54px" viewBox="0 0 204 54" version="1.1" xmlns="http://www.w3.org/2000/svg" xmlns:xlink="http://www.w3.org/1999/xlink">
    <!-- Generator: Sketch 52.1 (67048) - http://www.bohemiancoding.com/sketch -->
    <title>Group 3</title>
    <desc>Created with Sketch.</desc>
    <g id="Page-1" stroke="none" stroke-width="1" fill="none" fill-rule="evenodd">
        <g id="3" transform="translate(-1132.000000, -101.000000)" fill="#479CC6">
            <g id="Group-3" transform="translate(1132.000000, 101.000000)">
                <g id="Group-2" transform="translate(43.098592, 0.000000)">
                    <g id="1200px-Varian_company_logo_2017" transform="translate(0.179577, 0.183555)">
                        <path d="M43.6373239,0.204442361 C47.7191197,-0.179335404 51.8907042,1.60325851 54.4963732,4.75238821 C54.5089437,3.43606634 54.498169,2.11974448 54.5035563,0.80342261 C56.4088732,0.805215964 58.3141901,0.801629256 60.219507,0.807009318 C60.219507,10.0087089 60.2213028,19.2104085 60.219507,28.4121081 C58.3141901,28.4156948 56.4088732,28.4121081 54.5035563,28.4139014 C54.4963732,27.104753 54.5107394,25.7956045 54.4945775,24.4882494 C52.8388732,26.4501787 50.6121127,27.9422493 48.123169,28.6183438 C44.9733803,29.5024673 41.5003521,29.1276563 38.5965845,27.6248256 C35.8562324,26.2260095 33.66,23.848022 32.3867958,21.0593565 C30.7095423,17.3883608 30.5551056,13.0592041 31.9360563,9.26805368 C32.8932042,6.63182324 34.6369014,4.26997597 36.9265141,2.63802379 C38.8821127,1.23024087 41.2309859,0.367637578 43.6373239,0.204442361 Z M44.0844718,5.54146399 C40.3277113,6.17451796 37.3485211,9.50656977 36.903169,13.2492997 C36.4398592,16.3553889 37.5927465,19.6982008 40.0026761,21.7497978 C41.5901408,23.1217136 43.6947887,23.8964426 45.7994366,23.8247084 C48.4428169,23.8695423 51.0448944,22.5514271 52.6449296,20.4621696 C54.2916549,18.362152 54.9740493,15.5394128 54.4838028,12.9193225 C54.0240845,10.1880443 52.2767958,7.68093536 49.8058099,6.39689386 C48.0675,5.46255641 46.0185211,5.21866026 44.0844718,5.54146399 Z" id="Shape" fill-rule="nonzero"></path>
                        <path d="M101.245775,4.62685343 C104.476373,0.919990623 109.861901,-0.724515033 114.604542,0.611533728 C117.084507,1.29480162 119.361549,2.74383168 120.995704,4.73445467 C121.051373,3.42171951 120.95081,2.107191 121.053169,0.798042548 C122.945915,0.808802672 124.838662,0.801629256 126.733204,0.80342261 C126.738592,10.0051222 126.733204,19.2086151 126.735,28.4121081 C124.824296,28.4103147 122.915387,28.4228682 121.006479,28.4049347 C121.026232,27.110133 121.033415,25.8153314 120.9975,24.5205298 C118.989824,26.9254176 116.068099,28.5663365 112.95243,28.9644611 C109.966056,29.389486 106.841408,28.7223583 104.275246,27.1442068 C101.800669,25.635996 99.8522535,23.3100158 98.7370775,20.6432984 C96.5282746,15.4049112 97.3812676,8.87889586 101.245775,4.62685343 Z M110.707711,5.5253238 C108.989155,5.82840063 107.356796,6.64617008 106.117711,7.87999766 C104.295,9.63748462 103.294754,12.182254 103.339648,14.7037098 C103.348627,17.2054387 104.370423,19.714341 106.198521,21.4377542 C107.836268,23.0302526 110.136655,23.9233429 112.424472,23.8247084 C115.281549,23.8534021 118.032676,22.2626971 119.586021,19.8936764 C121.155528,17.5497626 121.575739,14.4956807 120.749683,11.8038563 C119.9775,9.20169958 117.989577,6.96538709 115.443169,5.9898025 C113.947289,5.38902889 112.289789,5.29039442 110.707711,5.5253238 Z" id="Shape" fill-rule="nonzero"></path>
                        <path d="M141.661479,0.911023853 C145.439789,-0.358670808 149.751444,-0.0304870187 153.249613,1.89916193 C155.594894,3.18320342 157.527148,5.19714001 158.70338,7.59664772 C159.735951,9.62672449 160.163345,11.9078708 160.197465,14.1710836 C160.215423,18.9162984 160.201056,23.6615132 160.204648,28.406728 C158.297535,28.4228682 156.390423,28.4103147 154.48331,28.4139014 C154.48331,23.842642 154.481514,19.2713825 154.485106,14.7001231 C154.668275,11.3985583 153.089789,7.86923753 150.036972,6.35744008 C147.680915,5.15051281 144.726866,5.18637989 142.412113,6.47221473 C139.781303,7.90869132 138.227958,10.8748989 138.179472,13.8231729 C138.157923,18.6867491 138.177676,23.5503253 138.170493,28.4121081 C136.268768,28.4139014 134.368838,28.4156948 132.468908,28.4121081 C132.465317,23.5467386 132.4725,18.6795757 132.465317,13.8142062 C132.513803,10.9538065 133.373979,8.08264666 135.062007,5.75666647 C136.678204,3.50062709 139.028873,1.79156069 141.661479,0.911023853 Z" id="Path"></path>
                        <path d="M0.00897887324,0.805215964 C2.09028169,0.801629256 4.17158451,0.807009318 6.25109155,0.801629256 C9.21052817,7.66120846 12.1484155,14.5297544 15.0898944,21.3983004 C15.1078521,21.5561156 15.3269366,21.8591924 15.4257042,21.5722558 C18.3887324,14.6517025 21.3391901,7.72756256 24.2950352,0.805215964 C26.3422183,0.805215964 28.3911972,0.801629256 30.4401761,0.807009318 C26.4140493,10.0051222 22.4292254,19.2247553 18.3905282,28.4192815 C16.2661268,28.4049347 14.1435211,28.4228682 12.0191197,28.4085214 C8.0253169,19.2032351 3.98123239,10.019469 0.00897887324,0.805215964 Z" id="Path"></path>
                        <path d="M69.0834507,4.39909746 C71.2850704,2.00317646 74.5875,0.936130809 77.7714085,0.814182735 C79.2870423,0.792662486 80.8026761,0.805215964 82.3183099,0.807009318 C82.3165141,2.60395007 82.3165141,4.40089082 82.3183099,6.19603821 C80.2244366,6.28929262 78.0659155,5.94317529 76.0348944,6.59954287 C74.4689789,7.09092188 73.145493,8.26198207 72.4666901,9.75405263 C71.5903521,11.5671336 71.6083099,13.6312841 71.6208803,15.5985934 C71.6190845,19.8703628 71.6208803,24.1421321 71.6208803,28.4139014 C69.7299296,28.4174881 67.8407746,28.406728 65.9498239,28.4192815 C65.9300704,23.4893512 65.9408451,18.5612143 65.9444366,13.6312841 C65.9372535,10.3368927 66.7974296,6.87213268 69.0834507,4.39909746 Z" id="Path"></path>
                        <path d="M86.7664437,0.801629256 C88.6573944,0.805215964 90.5501408,0.80342261 92.4410915,0.80342261 C92.4428873,10.0069155 92.4464789,19.2104085 92.4392958,28.4156948 C90.5465493,28.4103147 88.6555986,28.4174881 86.7646479,28.4121081 C86.7664437,19.2086151 86.7610563,10.0051222 86.7664437,0.801629256 Z" id="Path"></path>
                    </g>
                    <path d="M111.012993,53.6255055 L111.012993,48.6866085 C111.012993,47.2662721 110.221056,46.5238235 109.02507,46.5238235 C107.812923,46.5238235 107.020986,47.2662721 107.020986,48.6866085 L107.020986,53.6255055 L104.75831,53.6255055 L104.75831,48.6866085 C104.75831,47.2662721 103.966373,46.5238235 102.770387,46.5238235 C101.542077,46.5238235 100.750141,47.2662721 100.750141,48.6866085 L100.750141,53.6255055 L98.4874648,53.6255055 L98.4874648,44.6838422 L100.750141,44.6838422 L100.750141,45.7652347 C101.31581,45.0227861 102.269366,44.5547207 103.384542,44.5547207 C104.774472,44.5547207 105.921972,45.1519076 106.536127,46.2655805 C107.117958,45.2487488 108.297782,44.5547207 109.606901,44.5547207 C111.756444,44.5547207 113.275669,45.9104964 113.275669,48.3799449 L113.275669,53.6255055 L111.012993,53.6255055 Z M117.687887,49.170814 L117.687887,53.6255055 L115.425211,53.6255055 L115.425211,44.6838422 L117.687887,44.6838422 L117.687887,46.0718983 C118.253556,45.1519076 119.190951,44.5547207 120.435423,44.5547207 L120.435423,46.9273281 L119.83743,46.9273281 C118.495986,46.9273281 117.687887,47.4438141 117.687887,49.170814 Z M121.954648,53.6255055 L121.954648,44.6838422 L124.217324,44.6838422 L124.217324,53.6255055 L121.954648,53.6255055 Z M123.102148,43.6185899 C122.294049,43.6185899 121.712218,43.0375432 121.712218,42.2950946 C121.712218,41.5526461 122.294049,40.9715994 123.102148,40.9715994 C123.894085,40.9715994 124.492077,41.5526461 124.492077,42.2950946 C124.492077,43.0375432 123.894085,43.6185899 123.102148,43.6185899 Z M130.649789,50.8493934 L130.649789,46.5399637 L129.583099,46.5399637 L129.583099,44.6838422 L130.649789,44.6838422 L130.649789,42.4726367 L132.928627,42.4726367 L132.928627,44.6838422 L134.932711,44.6838422 L134.932711,46.5399637 L132.928627,46.5399637 L132.928627,50.8655336 C132.928627,51.4627205 133.171056,51.7209635 133.882183,51.7209635 L134.932711,51.7209635 L134.932711,53.6255055 L133.510458,53.6255055 C131.797289,53.6255055 130.649789,52.8991971 130.649789,50.8493934 Z M140.41162,46.394702 C139.328768,46.394702 138.472183,47.08873 138.294401,48.3153842 L142.545,48.3153842 C142.512676,47.1371506 141.575282,46.394702 140.41162,46.394702 Z M144.662218,50.8171131 C144.177359,52.4634121 142.690458,53.7707672 140.476268,53.7707672 C137.87419,53.7707672 135.983239,51.9630663 135.983239,49.1546739 C135.983239,46.3301412 137.825704,44.5385806 140.476268,44.5385806 C143.062183,44.5385806 144.888486,46.2978609 144.888486,48.9609916 C144.888486,49.251515 144.872324,49.5420383 144.823838,49.8325617 L138.278239,49.8325617 C138.391373,51.156057 139.296444,51.8985055 140.427782,51.8985055 C141.3975,51.8985055 141.930845,51.4142999 142.221761,50.8171131 L144.662218,50.8171131 Z M153.486655,51.075356 C153.486655,52.6086737 152.145211,53.7707672 149.963345,53.7707672 C147.716831,53.7707672 146.14912,52.4634121 146.052148,50.8009729 L148.330986,50.8009729 C148.411796,51.4788607 149.042113,51.9953467 149.947183,51.9953467 C150.836092,51.9953467 151.320951,51.591842 151.320951,51.075356 C151.320951,49.4774776 146.262254,50.4943093 146.262254,47.2178515 C146.262254,45.7329543 147.587535,44.5385806 149.801725,44.5385806 C151.96743,44.5385806 153.276549,45.7168142 153.405845,47.4922347 L151.240141,47.4922347 C151.175493,46.7982066 150.625986,46.3301412 149.737077,46.3301412 C148.896655,46.3301412 148.460282,46.6690852 148.460282,47.1855711 C148.460282,48.8157299 153.422007,47.7988982 153.486655,51.075356 Z M155.700845,50.8493934 L155.700845,46.5399637 L154.634155,46.5399637 L154.634155,44.6838422 L155.700845,44.6838422 L155.700845,42.4726367 L157.979683,42.4726367 L157.979683,44.6838422 L159.983768,44.6838422 L159.983768,46.5399637 L157.979683,46.5399637 L157.979683,50.8655336 C157.979683,51.4627205 158.222113,51.7209635 158.933239,51.7209635 L159.983768,51.7209635 L159.983768,53.6255055 L158.561514,53.6255055 C156.848345,53.6255055 155.700845,52.8991971 155.700845,50.8493934 Z" id="mri-test"></path>
                </g>
                <path d="M12.1299564,0.0621874575 C12.171463,0.00580015375 12.2495072,0.00492818513 12.3129364,0.00144031068 C14.8571192,0.00173096688 17.4010098,0.0026029355 19.9449003,0.00114965447 C20.0854968,-0.00466346962 20.2252164,0.0124852465 20.3640591,0.0319592122 C20.4035196,0.256636458 20.3965044,0.484801579 20.3938737,0.711804075 C20.3918276,0.867595801 20.3324906,1.01699309 20.3368751,1.17307547 C20.3368751,1.58086613 20.3400905,1.98836613 20.3359982,2.39586613 C20.3006299,2.86004408 20.3254754,3.32596598 20.3164141,3.79130656 C20.3073528,4.24734615 20.314368,4.70367639 20.3123219,5.15971598 C20.3126142,5.26667746 20.2757844,5.3692791 20.2772459,5.47624058 C20.2760767,5.84508331 20.2787074,6.21363537 20.2775382,6.5824781 C20.2781228,6.73885114 20.2176166,6.88795777 20.2202473,7.04404015 C20.219955,7.52943601 20.2243395,8.01483187 20.2152782,8.49993708 C20.2231703,9.08008686 20.1842943,9.65965534 20.1974478,10.2400958 C20.2784151,10.2354453 20.3625976,10.2386425 20.4394726,10.2072516 C20.8063096,10.0575637 21.1918539,9.96193779 21.5616139,9.82038822 C21.9819419,9.69133686 22.3888241,9.52391889 22.8094444,9.39632082 C23.0400694,9.31697167 23.2660176,9.22279906 23.5039502,9.16583044 C23.9298319,9.02718744 24.3530829,8.88069671 24.7766262,8.73507795 C25.1691856,8.61242103 25.5500531,8.45546668 25.944074,8.33600698 C26.4433231,8.18166854 26.932634,7.99826447 27.4277909,7.83229978 C27.8621494,7.68551839 28.2959232,7.53786504 28.7273586,7.38236397 C29.064381,7.28266889 29.3859114,7.13705014 29.7238107,7.039099 C29.7866553,7.02456618 29.8524229,7.02078765 29.9176059,7.02631012 C29.978989,7.07107118 29.9959424,7.1539082 30.0280954,7.21988715 C30.1201701,7.47886183 30.1859377,7.74626554 30.2800584,8.00465891 C30.4045784,8.37815213 30.5136064,8.75629585 30.6471877,9.12688251 C30.7509544,9.4753793 30.8617362,9.8218415 30.9815794,10.1653971 C31.0640081,10.4168148 31.130068,10.6749175 31.2423114,10.9155808 C31.3492933,11.1742648 31.4019074,11.4503882 31.5004126,11.7119788 C31.6299017,12.0828561 31.7383452,12.4604185 31.8684189,12.8312958 C31.9604935,13.0879453 32.0221689,13.353605 32.1148281,13.6102545 C32.2261946,13.9168968 32.3100848,14.2331307 32.427005,14.5380291 C32.4559427,14.6223194 32.4810805,14.7132948 32.4626656,14.8028169 C32.3740986,14.920242 32.2086566,14.9138475 32.0815059,14.9618058 C31.425876,15.168753 30.760308,15.3422748 30.1061397,15.5541632 C29.5060469,15.7311728 28.9097541,15.9198087 28.3096613,16.0965276 C28.212033,16.1247213 28.1217121,16.1712263 28.0275914,16.2075583 C27.362608,16.4171214 26.696163,16.6223247 26.0265027,16.8159018 C25.2130307,17.0513333 24.407743,17.3140865 23.5931018,17.5463208 C23.3542923,17.6181129 23.120452,17.7082163 22.8757966,17.7584998 C22.8377975,17.7675102 22.80126,17.7805897 22.7664762,17.7971571 C22.7311079,17.9238832 22.8296131,18.0241596 22.901519,18.1154256 C23.1189905,18.3697498 23.2958323,18.6548836 23.5048271,18.9158928 C24.0359369,19.6178276 24.5731851,20.3151118 25.1045872,21.0164652 C25.2536604,21.2016132 25.3761343,21.4059445 25.5234537,21.5922552 C25.6924034,21.8082127 25.8443996,22.0378311 26.0285489,22.2418718 C26.2609277,22.4836977 26.4368925,22.7711567 26.6496872,23.0292594 C27.1629668,23.708523 27.6823846,24.3834267 28.1991717,25.060365 C28.3535064,25.2722534 28.5122255,25.4812352 28.6829289,25.6806253 C28.7539579,25.7675315 28.8486633,25.8678079 28.8103719,25.9904649 C28.6712369,26.1363743 28.4821185,26.2206646 28.3231071,26.3424495 C28.0679289,26.5098675 27.8533804,26.7293129 27.6014174,26.9010907 C27.1284753,27.2347641 26.6686868,27.5867487 26.1942832,27.9183875 C25.9747656,28.0558678 25.7634324,28.2052651 25.5570683,28.3616382 C24.5866309,29.0597944 23.6252548,29.7704488 22.6536482,30.467733 C22.4882062,30.5889367 22.3327024,30.729033 22.1374457,30.802569 C21.8281919,30.3415882 21.4908772,29.9006628 21.1795772,29.4411353 C21.0381038,29.2365133 20.8966304,29.0318914 20.7323576,28.8447088 C20.5259935,28.5979417 20.3666898,28.3174584 20.1758176,28.0596464 C19.8592563,27.6181396 19.5482486,27.1725636 19.2334411,26.7296036 C18.9262333,26.2290936 18.5617347,25.7666596 18.2314352,25.2815544 C17.7035407,24.5363119 17.1785692,23.7893254 16.6512592,23.0437923 C16.5390158,22.8868379 16.4408029,22.7173853 16.3045909,22.579033 C16.2633765,22.5299121 16.1786094,22.5406664 16.1482102,22.5964724 C15.9377539,22.8708518 15.7591583,23.1690651 15.531164,23.4306557 C15.1426968,23.9843557 14.749845,24.5354399 14.3651776,25.0923372 C14.0556315,25.51437 13.7706386,25.9535515 13.4605079,26.375003 C13.3567412,26.5165526 13.2775278,26.6732163 13.1760996,26.8162191 C12.3275514,28.0175012 11.4880646,29.2248871 10.6403934,30.4270412 C10.5760873,30.5215044 10.5164581,30.6203275 10.4395831,30.7060711 C10.3849229,30.7778632 10.2700488,30.7735034 10.1978506,30.7322302 C8.66064272,29.6134944 7.11641962,28.5028971 5.58271934,27.3792202 C5.33367938,27.1870964 5.05862469,27.0321767 4.80900014,26.8412156 C4.58217501,26.6923996 4.39247204,26.4964973 4.16769302,26.3450654 C3.98675907,26.2139795 3.7996868,26.0910319 3.63015256,25.9457038 C3.85376238,25.5998229 4.12414026,25.2876582 4.36704191,24.9557288 C4.65320402,24.5729345 4.91276678,24.1674691 5.24803536,23.8242042 C5.60873408,23.3608982 5.96270988,22.8923604 6.31463958,22.4226599 C6.63821614,21.9971393 6.9606235,21.5707466 7.27133884,21.1362156 C7.93807609,20.2476796 8.61241315,19.3649567 9.28148881,18.4781646 C9.39256296,18.3171411 9.51036003,18.1610587 9.6269879,18.0041043 C9.67258676,17.9430665 9.71789333,17.817503 9.62494179,17.7797177 C9.54046697,17.7407698 9.44546934,17.7358286 9.35777921,17.7073443 C8.66678103,17.4864456 7.96876764,17.2887994 7.27776945,17.0679007 C6.52743428,16.8595002 5.79200644,16.6008162 5.03904056,16.4028793 C4.82303056,16.3334125 4.60351294,16.2732466 4.39042594,16.1956414 C4.26824437,16.1340223 4.13933988,16.0883893 4.00605089,16.0578704 C2.78803506,15.6852491 1.56709622,15.3228008 0.350541889,14.9449478 C0.228360315,14.9103597 0.0623336784,14.9065811 0.00182749224,14.7740419 C-0.0127875286,14.6371428 0.0637951805,14.5141953 0.10559414,14.3883411 C0.276297583,13.8907377 0.444954923,13.392553 0.59695114,12.8891364 C0.780808101,12.3389242 0.967295767,11.789584 1.14939893,11.2387905 C1.3446556,10.5447035 1.61474119,9.87328765 1.81145937,9.17949129 C2.05377641,8.45256012 2.30690857,7.72940748 2.52964149,6.99637253 C2.62756213,6.99491925 2.72782117,6.99782581 2.8187266,7.039099 C3.16042579,7.17221954 3.51440159,7.27104265 3.85639308,7.40387253 C4.74878625,7.7140027 5.64819463,8.00436825 6.5397109,8.31827695 C6.93460876,8.46098915 7.33389113,8.59149378 7.7308351,8.72897417 C8.35489649,8.95597667 8.98801919,9.15769207 9.61588048,9.37364963 C9.90262719,9.46782224 10.1791434,9.59309507 10.472613,9.66634043 C10.6129172,9.70325377 10.7418217,9.77126732 10.8777414,9.82038822 C11.324961,9.97705191 11.7751037,10.1261585 12.2223233,10.2834036 C12.2962753,10.0738404 12.2644146,9.85061646 12.2699683,9.63349628 C12.2658761,9.43933793 12.2796142,9.24430762 12.2635377,9.05073059 C12.213262,8.75367995 12.2135543,8.45110684 12.2261232,8.15144029 C12.2421997,7.99652053 12.2345999,7.84072881 12.2229079,7.68609971 C12.2153081,6.92952161 12.213262,6.17294351 12.216185,5.41665606 C12.2243694,5.25011006 12.1588941,5.09170242 12.1586018,4.92573773 C12.1580172,4.45981583 12.1594787,3.99389394 12.1588941,3.52797204 C12.1606479,3.41170956 12.1206027,3.29951627 12.1235258,3.18325378 C12.1241104,2.70774023 12.1238181,2.23222668 12.1241104,1.75671313 C12.1279103,1.43699131 12.0814345,1.11726948 12.1135875,0.797547655 C12.1390177,0.552815131 12.0633119,0.303141451 12.1299564,0.0621874575 Z" id="Path"></path>
            </g>
        </g>
    </g>
</svg>