<?xml version="1.0" encoding="UTF-8"?>
<svg width="91px" height="87px" viewBox="0 0 91 87" version="1.1" xmlns="http://www.w3.org/2000/svg" xmlns:xlink="http://www.w3.org/1999/xlink">
    <!-- Generator: Sketch 52.1 (67048) - http://www.bohemiancoding.com/sketch -->
    <title>Path</title>
    <desc>Created with Sketch.</desc>
    <g id="Page-1" stroke="none" stroke-width="1" fill="none" fill-rule="evenodd">
        <g id="1" transform="translate(-436.000000, -377.000000)" fill="#479CC6">
            <g id="Group-3" transform="translate(436.000000, 377.000000)">
                <path d="M33.773604,0.173894557 C33.8891715,0.0162189484 34.1064711,0.0137806658 34.2830779,0.00402753541 C41.366881,0.00484029628 48.4498703,0.00727857889 55.5328596,0.00321477455 C55.9243244,-0.0130404428 56.3133476,0.0349124484 56.6999292,0.0893674266 C56.8097998,0.717631578 56.7902672,1.35564886 56.7829425,1.9904151 C56.7772455,2.42605492 56.6120328,2.84381401 56.6242406,3.2802666 C56.6242406,4.4205701 56.633193,5.56006083 56.621799,6.69955157 C56.5233225,7.99753068 56.5925002,9.30038635 56.5672707,10.6016165 C56.5420411,11.8768383 56.5615737,13.1528729 56.5558767,14.4280947 C56.5566906,14.7271907 56.4541447,15.0140953 56.458214,15.3131913 C56.4549585,16.3445848 56.4622833,17.3751656 56.4590278,18.4065591 C56.4606555,18.8438245 56.2921873,19.2607708 56.299512,19.6972234 C56.2986982,21.054534 56.310906,22.4118447 56.2856765,23.7683426 C56.3076506,25.3906133 56.1994077,27.0112584 56.2360313,28.6343419 C56.4614694,28.6213377 56.6958599,28.6302781 56.9099041,28.5424999 C57.9312934,28.1239281 59.0047696,27.8565297 60.0342975,27.4607152 C61.2046225,27.0998494 62.3375102,26.6316991 63.508649,26.2748971 C64.1507815,26.0530134 64.7798922,25.7896789 65.442371,25.6303777 C66.6281593,25.2426908 67.8066229,24.8330593 68.9859003,24.4258661 C70.078909,24.082881 71.1393635,23.6439902 72.2364414,23.3099454 C73.6265076,22.8783694 74.9889026,22.3655173 76.3675748,21.9014309 C77.5769649,21.4909866 78.7847273,21.0781041 79.9859788,20.643277 C80.9243549,20.3645001 81.8195965,19.9573069 82.7604141,19.6834064 C82.9353932,19.6427684 83.1185108,19.6322025 83.3000007,19.647645 C83.4709105,19.7728101 83.5181141,20.004447 83.6076383,20.1889437 C83.864003,20.9131136 84.0471206,21.6608536 84.3091822,22.3833981 C84.6558849,23.4277958 84.9594532,24.4851977 85.3313854,25.5214678 C85.6203043,26.4959681 85.9287558,27.464779 86.2624368,28.4254624 C86.4919442,29.1285005 86.6758757,29.8502322 86.9883964,30.5231982 C87.2862677,31.2465553 87.4327618,32.0186782 87.7070313,32.7501629 C88.0675695,33.7872458 88.3695101,34.8430222 88.7316761,35.880105 C88.9880407,36.5977729 89.1597644,37.3406363 89.4177567,38.0583042 C89.7278359,38.9157669 89.9614126,39.8000507 90.286955,40.6526369 C90.3675267,40.8883375 90.4375184,41.1427317 90.3862454,41.393062 C90.139647,41.7214174 89.6790045,41.7035367 89.3249771,41.8376422 C87.499498,42.4163279 85.6463477,42.9015462 83.8249379,43.4940489 C82.1540914,43.9890202 80.493825,44.516502 78.8229785,45.0106606 C78.5511506,45.0894984 78.2996691,45.2195402 78.0376074,45.3211353 C76.1860849,45.9071359 74.3304931,46.4809451 72.4659488,47.0222438 C70.2009874,47.6805801 67.958814,48.4153159 65.6905971,49.0647119 C65.0256767,49.2654638 64.3745919,49.5174197 63.6933944,49.6580273 C63.5875931,49.6832229 63.4858611,49.7197971 63.3890122,49.7661245 C63.2905356,50.1204882 63.5648051,50.4008907 63.7650137,50.6560976 C64.3705226,51.3672634 64.8629055,52.1645818 65.4448126,52.8944411 C66.9235891,54.8572586 68.4194565,56.8070719 69.8990468,58.7682639 C70.3141134,59.2859925 70.6551191,59.8573634 71.0653026,60.3783431 C71.5357114,60.9822245 71.9589165,61.6243056 72.4716458,62.1948637 C73.1186614,62.8710807 73.6086027,63.6749012 74.20109,64.3966329 C75.6302212,66.296055 77.0764434,68.1832858 78.5153409,70.0762058 C78.9450569,70.6687085 79.3869808,71.2530836 79.8622727,71.8106375 C80.0600397,72.053653 80.3237291,72.3340555 80.217114,72.6770406 C79.8297185,73.0850466 79.3031536,73.3207472 78.8604159,73.661294 C78.1499196,74.1294443 77.5525492,74.7430787 76.8510053,75.2234204 C75.5341862,76.1564699 74.2539906,77.1407233 72.9331022,78.0680835 C72.3218963,78.4525193 71.7334784,78.8702784 71.158896,79.3075438 C68.4568939,81.2597954 65.7801213,83.2469957 63.0748637,85.196809 C62.6142212,85.5357303 62.1812498,85.9274811 61.6375939,86.1331096 C60.7765342,84.8440708 59.8373443,83.6111126 58.9705876,82.3261376 C58.5766813,81.753954 58.182775,81.1817703 57.7253879,80.6583523 C57.1508055,79.9683184 56.7072539,79.1840041 56.1758059,78.4630852 C55.2943998,77.2285015 54.428457,75.9825391 53.551934,74.7438915 C52.6965713,73.3443173 51.6816927,72.0512147 50.7620354,70.6947169 C49.2922114,68.610798 47.8305259,66.5220026 46.3623295,64.4372709 C46.0498088,63.9983801 45.7763532,63.5245405 45.3970962,63.1376663 C45.2823425,63.0003097 45.0463243,63.0303819 44.9616833,63.1864319 C44.3757069,63.9536782 43.8784408,64.7875709 43.2436331,65.5190556 C42.1620184,67.0673651 41.0681959,68.6083597 39.9971613,70.1656095 C39.1352877,71.3457383 38.3417781,72.57382 37.4782768,73.7523232 C37.1893579,74.1481378 36.9688029,74.5862159 36.6863948,74.9860942 C34.3237707,78.3452349 31.9863761,81.7214436 29.6261935,85.0830225 C29.4471452,85.3471698 29.2811185,85.6235085 29.0670744,85.8632729 C28.9148833,86.0640249 28.5950379,86.0518335 28.3940154,85.9364214 C24.1139464,82.8081048 19.8143448,79.7025456 15.5440421,76.560412 C14.8506367,76.0231771 14.0847982,75.5899756 13.3897651,75.0559917 C12.7582128,74.6398581 12.2300202,74.0920573 11.6041649,73.6686089 C11.100388,73.3020537 10.5795201,72.9582559 10.1074836,72.5518754 C10.7300835,71.58469 11.4829003,70.7117848 12.1592147,69.7836119 C12.9559798,68.7132059 13.678684,67.5794044 14.6121769,66.6195339 C15.6164753,65.323993 16.602055,64.0138225 17.5819377,62.7004009 C18.4828763,61.510519 19.3805596,60.3181988 20.2456885,59.1031213 C22.1020942,56.6185114 23.9796602,54.1501566 25.8425767,51.6704232 C26.151842,51.2201537 26.479826,50.7837011 26.8045545,50.3448102 C26.9315161,50.1741304 27.0576638,49.8230177 26.7988575,49.7173588 C26.5636531,49.6084489 26.2991499,49.5946319 26.0549931,49.5149814 C24.1310374,48.8972831 22.1875491,48.3446057 20.2635934,47.7269075 C18.1744249,47.1441579 16.126763,46.4208007 14.0302698,45.8673106 C13.4288302,45.6730607 12.8176243,45.5048192 12.2243232,45.2878121 C11.8841314,45.1155068 11.5252209,44.9879033 11.1541025,44.9025634 C7.76276428,43.860604 4.36328752,42.8470912 0.976018592,41.7905021 C0.635826759,41.6937835 0.173556516,41.6832176 0.00508831174,41.3125987 C-0.0356044913,40.9297883 0.177625797,40.5859905 0.294007213,40.234065 C0.769299153,38.8426184 1.2388941,37.4495463 1.66209925,36.0418445 C2.17401471,34.5032881 2.69325488,32.9671701 3.20028721,31.4269882 C3.74394306,29.4861153 4.49594606,27.6086377 5.04367118,25.6685775 C5.71835786,23.6358626 6.42315721,21.6137135 7.04331553,19.5639306 C7.31595731,19.5598668 7.59510993,19.5679944 7.84821917,19.6834064 C8.7996169,20.0556509 9.78519659,20.3319896 10.7374082,20.7034213 C13.2221107,21.5706372 15.7263458,22.3825853 18.2086068,23.260367 C19.3081264,23.6594326 20.4198537,24.0243622 21.5250703,24.4087981 C23.262653,25.0435644 25.0254652,25.6076204 26.773628,26.2115017 C27.5720208,26.4748363 28.3419286,26.8251362 29.1590401,27.0299519 C29.549691,27.1331726 29.9086016,27.3233586 30.2870446,27.4607152 C31.5322444,27.8987933 32.7855827,28.3157396 34.0307825,28.7554433 C34.2366881,28.1694427 34.1479778,27.5452423 34.163441,26.93811 C34.1520471,26.3951857 34.1902983,25.8498232 34.1455362,25.3085244 C34.005553,24.4778828 34.0063668,23.6317987 34.0413626,22.7938423 C34.0861247,22.3606408 34.0649645,21.9250009 34.0324102,21.4926121 C34.01125,19.3769956 34.005553,17.2613791 34.0136915,15.1465753 C34.0364795,14.6808633 33.8541757,14.2379086 33.8533619,13.7738222 C33.8517342,12.4709665 33.8558034,11.1681108 33.8541757,9.86525516 C33.8590589,9.54015081 33.7475606,9.22642511 33.7556992,8.90132077 C33.7573269,7.57164398 33.756513,6.2419672 33.7573269,4.91229042 C33.767907,4.01825347 33.6385039,3.12421651 33.728028,2.23017955 C33.7988335,1.5458349 33.5880448,0.847673317 33.773604,0.173894557 Z" id="Path"></path>
            </g>
        </g>
    </g>
</svg>